<?xml version="1.0" standalone="no"?>
<!DOCTYPE svg PUBLIC "-//W3C//DTD SVG 20010904//EN"
 "http://www.w3.org/TR/2001/REC-SVG-20010904/DTD/svg10.dtd">
<svg version="1.0" xmlns="http://www.w3.org/2000/svg"
 width="1185.000000pt" height="1185.000000pt" viewBox="0 0 1185.000000 1185.000000"
 preserveAspectRatio="xMidYMid meet">
<metadata>
Created by potrace 1.11, written by Peter Selinger 2001-2013
</metadata>
<g transform="translate(0.000000,1185.000000) scale(0.100000,-0.100000)"
fill="#000000" stroke="none">
<path d="M9585 8560 c-706 -41 -1275 -279 -1709 -716 -387 -389 -609 -925
-666 -1609 -13 -157 -13 -516 0 -686 23 -287 84 -598 165 -829 48 -136 167
-381 242 -495 154 -235 369 -450 608 -608 130 -86 365 -199 527 -251 467 -154
1047 -182 1649 -80 266 45 593 134 874 237 l119 44 72 384 c40 211 75 396 78
412 5 26 4 27 -36 27 -40 0 -46 -4 -145 -109 -319 -337 -762 -565 -1268 -652
-171 -30 -547 -37 -739 -15 -574 67 -996 297 -1286 704 -316 443 -455 964
-437 1642 13 502 95 876 269 1220 102 204 184 316 348 480 161 161 275 245
465 340 219 109 444 173 714 201 147 15 495 7 616 -15 353 -64 601 -189 826
-415 226 -227 379 -517 471 -893 l33 -138 36 0 c30 0 38 4 42 23 14 55 28 457
22 617 -6 157 8 516 31 802 l6 78 -28 10 c-63 24 -323 102 -447 134 -476 123
-1014 181 -1452 156z"/>
<path d="M307 8339 c-7 -226 -25 -478 -52 -709 -8 -69 -15 -185 -15 -257 l0
-133 53 0 52 0 24 92 c14 51 26 88 27 83 1 -6 5 -28 9 -49 5 -33 8 -37 20 -25
8 8 34 66 58 129 151 392 288 537 584 618 l98 27 713 3 713 3 -4 -1858 c-3
-1669 -5 -1870 -20 -1973 -54 -371 -110 -514 -262 -665 -72 -73 -108 -100
-180 -137 -49 -25 -123 -56 -162 -69 l-73 -23 0 -41 0 -40 133 11 c273 24 258
24 241 6 -28 -27 8 -35 125 -28 58 4 216 11 350 16 228 8 245 10 265 30 l21
21 0 2468 0 2469 -22 24 c-20 21 -23 35 -23 101 l0 77 -882 0 c-996 0 -1361
10 -1724 46 l-61 6 -6 -223z"/>
<path d="M5860 8545 c-280 -31 -467 -35 -1478 -35 l-1032 0 0 -2570 0 -2570
78 0 c64 0 80 -3 94 -19 18 -22 29 -23 444 -45 265 -14 319 -13 311 8 -3 8 20
10 79 6 l84 -5 0 40 0 40 -67 20 c-149 42 -295 136 -381 246 -42 54 -128 199
-118 199 2 0 -2 21 -10 48 -26 85 -53 257 -64 409 -8 101 -10 710 -8 1940 l3
1793 33 32 32 33 703 0 702 0 114 -27 c62 -15 134 -40 160 -54 112 -66 218
-215 277 -393 36 -109 64 -257 64 -343 l0 -58 55 0 c36 0 57 4 60 13 2 6 7 48
10 91 5 59 10 75 17 63 13 -25 25 -13 32 31 6 38 31 774 30 871 -1 44 -5 58
-23 72 -21 17 -22 23 -15 99 l7 80 -39 -1 c-22 -1 -91 -7 -154 -14z"/>
<path d="M7292 7726 c-242 -149 -436 -348 -570 -583 -147 -257 -266 -611 -308
-918 -24 -176 -25 -558 0 -735 63 -461 212 -849 454 -1180 134 -183 367 -382
565 -482 l80 -40 -64 71 c-305 341 -503 826 -579 1419 -74 573 -35 1200 105
1681 70 242 184 491 307 676 92 139 90 135 86 135 -2 0 -36 -20 -76 -44z"/>
<path d="M6068 6237 c-7 -7 -31 -38 -52 -70 -49 -73 -111 -128 -188 -166 -87
-44 -154 -54 -298 -48 -133 6 -226 24 -435 81 -287 79 -486 98 -655 62 -172
-37 -325 -143 -392 -273 -46 -88 -61 -157 -61 -268 0 -164 46 -227 82 -113 15
47 81 121 137 154 136 80 285 73 773 -36 232 -52 355 -64 506 -50 323 30 512
153 606 393 28 72 32 95 33 182 1 55 -2 112 -6 126 -9 31 -30 42 -50 26z"/>
</g>
</svg>
